<svg width="22" height="17" viewBox="0 0 22 17" fill="none" xmlns="http://www.w3.org/2000/svg">
<path d="M0 0.85C0 0.380558 0.351776 0 0.785714 0H21.2143C21.6482 0 22 0.380558 22 0.85C22 1.31944 21.6482 1.7 21.2143 1.7H0.785715C0.351777 1.7 0 1.31944 0 0.85Z" fill="black"/>
<path d="M0 16.15C0 15.6806 0.351776 15.3 0.785714 15.3C0.785714 15.3 20.5661 15.3 21 15.3C21.4339 15.3 22 15.6806 22 16.15C22 16.6194 21.4339 17 21 17C20.5661 17 0.785715 17 0.785715 17C0.351777 17 0 16.6194 0 16.15Z" fill="black"/>
<path d="M0 8.5C0 8.03056 0.351776 7.65 0.785714 7.65H21.2143C21.6482 7.65 22 8.03056 22 8.5C22 8.96944 21.6482 9.35 21.2143 9.35H0.785715C0.351777 9.35 0 8.96944 0 8.5Z" fill="black"/>
</svg>
